<svg width="18" height="12" viewBox="0 0 18 12" fill="#33FF33" xmlns="http://www.w3.org/2000/svg">
<path d="M6 7.99999H7V8.99999H6V7.99999Z"/>
<path d="M11 7.99999H12V8.99999H11V7.99999Z" />
<path d="M2 4H3V5H2V4Z" />
<path d="M6 7.99999H7V8.99999H6V7.99999Z" />
<path d="M1 1H2V2H1V1Z" />
<path d="M16 1H17V2H16V1Z" />
<path d="M11 7.99999H12V8.99999H11V7.99999Z" />
<path d="M14 5H15V6H14V5Z" />
<path d="M15 4H16V5H15V4Z" />
<path d="M16 10H17V11H16V10Z" />
<path d="M1 10H2V11H1V10Z" />
<path d="M3 3H4V4H3V3Z" />
<path d="M4 4H5V5H4V4Z" />
<path d="M3 5H4V6H3V5Z" />
<path d="M13 4.00001H14L14 5L13 5.00001V4.00001Z" />
<path d="M14 3H15L15 4L14 4.00001L14 3Z" />
<path d="M7 7V7.99999H11L11 7H7Z" />
<path d="M5 11L6 11L6 8.99999L5 9L5 11Z" />
<path d="M5 12V11L2 11V12L5 12Z" />
<path d="M1 2H0V10H1V2Z" />
<path d="M2 0V1H6V0H2Z" />
<path d="M12 2V1H6V2H12Z" />
<path d="M16 1V0H12V1H16Z" />
<path d="M18 2H17V10H18V2Z" />
<path d="M13 11L13 12L16 12V11L13 11Z" />
<path d="M12 11H13V9L12 8.99999L12 11Z" />
</svg>
