<svg viewBox="0 0 18 29" fill="none" xmlns="http://www.w3.org/2000/svg">
<path d="M0.773438 14.6932L0.873493 13.5332H2.20701L2.3201 14.6932H0.773438Z" fill="#33FF33"/>
<path d="M8.73932 0.831055C9.11008 0.831055 9.48085 0.831055 9.8715 0.831055C9.8715 1.1508 9.87137 1.45657 9.87153 1.76233C9.87166 1.99081 9.87182 1.99096 10.1004 1.99111C10.374 1.99128 10.6476 1.99115 10.9353 1.99115C10.9388 2.07403 10.9437 2.13715 10.9438 2.20028C10.9444 2.83893 10.9479 3.47761 10.9415 4.11618C10.9401 4.26213 10.9813 4.31355 11.1262 4.30817C11.4067 4.29775 11.688 4.31098 11.9686 4.30237C12.0984 4.29839 12.1369 4.34571 12.1359 4.47576C12.1311 5.10845 12.1336 5.74121 12.1343 6.37394C12.1343 6.41993 12.1408 6.46591 12.1457 6.52972C12.4944 6.52972 12.8361 6.52972 13.2005 6.52972C13.2005 7.30663 13.2005 8.06555 13.2005 8.8427C13.5643 8.8427 13.9056 8.8427 14.2727 8.8427C14.2727 9.6066 14.7931 9.75793 14.7931 10.5253C15.1819 10.5253 15.3072 11.0225 15.6875 11.0225C15.6875 11.7981 16.2577 12.1687 16.2577 12.9491C16.6539 12.9491 16.3438 13.4253 16.7445 13.4253C16.7445 13.8103 16.5819 14.174 16.5643 14.5466C16.1713 14.5603 15.7959 14.5603 15.4054 14.5603C15.4054 14.1779 15.4054 13.8253 15.4054 13.4496C14.6666 13.4496 13.5874 13.4302 12.8417 13.4302C12.8417 13.0443 13.1971 12.701 13.1971 12.3232C12.4384 12.3232 11.32 12.3232 10.5651 12.3232C10.5651 11.9201 10.947 11.5328 10.947 11.1237C10.583 11.1237 10.2371 11.1237 9.87152 11.1237C9.87152 10.7271 9.83332 10.4847 9.83332 10.1111C9.46029 10.1111 9.14566 9.9787 8.78651 9.9744C8.7663 9.96419 8.75241 9.95828 8.73796 9.93548C8.73708 9.00746 8.73626 8.09634 8.73654 7.18521C8.73718 5.06716 8.73836 2.94911 8.73932 0.831055Z" fill="#33FF33"/>
<path d="M8.78057 0.91019C8.79574 3.0246 8.94382 5.09609 8.94319 7.20831C8.94291 8.11693 8.95849 9.00459 8.94319 9.93118C8.59155 9.94916 8.32296 10.5226 7.96749 10.5226C7.96749 10.9234 7.96749 10.8517 7.96749 11.2173C7.93722 11.229 7.51918 11.0907 7.50882 11.0908C7.30032 11.0927 7.09181 11.0944 6.88331 11.0947C6.51029 11.0953 6.74784 11.9225 6.74786 12.3082C6.74787 12.5769 6.51032 12.0179 6.51032 12.3082C5.75325 12.3082 4.56098 14.4169 3.82076 14.4169C3.82076 14.7392 4.27595 12.9308 4.28688 13.2304C4.29245 13.383 4.23415 13.4244 4.10152 13.4225C3.44246 13.4135 2.78334 13.4091 2.12425 13.4031C2.12101 12.6719 2.11881 11.9406 2.11329 11.2094C2.11254 11.1105 2.15876 11.0924 2.239 11.0932C2.49857 11.0959 2.75819 11.0941 3.01779 11.0941C3.07896 11.0941 3.14014 11.0941 3.2221 11.0941C3.2221 10.3393 3.2221 9.59933 3.2221 8.82793C3.48201 8.82793 3.72207 8.82793 3.96212 8.82793C4.28236 8.82793 4.28236 8.82793 4.28236 8.49178C4.28235 7.90777 4.28235 7.32376 4.28234 6.73975C4.28234 6.67639 4.28234 6.61303 4.28234 6.52416C4.58082 6.52416 4.86091 6.52436 5.14099 6.52409C5.36164 6.52388 5.36189 6.52362 5.36194 6.28638C5.36205 5.69647 5.36192 5.10655 5.36188 4.51664C5.36188 4.45282 5.36188 4.38899 5.36188 4.29651C5.63417 4.29651 5.89142 4.29651 6.14866 4.29651C6.5139 4.29651 6.5139 4.2965 6.5139 3.91883C6.5139 3.33482 6.51839 2.75074 6.51071 2.16684C6.50882 2.02267 6.5541 1.98466 6.68465 1.99007C6.91567 1.99964 7.14769 1.98431 7.37856 1.99569C7.53127 2.00321 7.57324 1.94207 7.56879 1.79039C7.55967 1.47896 7.64225 1.24887 7.64225 0.910156C7.99217 0.910156 8.78057 0.91019 8.78057 0.91019Z" fill="#33FF33"/>
<path d="M2.15226 13.3658C2.81865 13.3714 3.48449 13.3757 4.15026 13.3846C4.28424 13.3864 4.34313 13.3456 4.3375 13.1952C4.32646 12.8998 4.33426 12.6037 4.33426 12.286C5.08202 12.286 5.66225 12.0957 6.42703 12.0957C6.42703 11.8096 6.5836 11.7349 6.58359 11.47C6.58357 11.0898 6.58356 11.0902 6.96037 11.0896C7.171 11.0893 7.38163 11.0876 7.59225 11.0858C7.60272 11.0857 7.61313 11.0784 7.64371 11.0668C7.64371 10.7064 7.64371 10.3377 7.64371 9.94252C8.0028 9.94252 8.34223 9.94252 8.69801 9.94141C8.72815 9.9461 9.08786 10.1471 9.11021 10.1737C9.11947 10.2527 9.02874 10.629 9.02874 10.6871C9.02888 13.9591 8.77506 16.7177 8.77557 19.9897C8.77558 20.065 8.7817 20.1404 8.78497 20.2157C8.41542 20.2157 8.04587 20.2157 7.65419 20.2157C7.65419 19.8074 7.65419 19.4045 7.65419 18.9813C7.28819 18.9813 6.94371 18.9813 6.58429 18.9813C6.58429 18.6144 6.58429 18.2679 6.58429 17.8982C5.83248 17.8982 5.06605 17.8982 4.31286 17.8982C4.31286 17.4943 4.28318 17.0938 4.31286 16.7357C3.57673 16.7357 2.88652 16.709 2.14566 16.709C2.14566 16.3354 2.14566 15.9842 2.14566 15.6162C1.75117 15.6162 1.30772 15.6162 0.90957 15.6162C0.90957 15.2358 0.89315 14.8537 0.909813 14.4717C1.2988 14.4532 1.75734 14.4717 2.15064 14.4717C2.15064 14.0836 2.15064 13.7253 2.15064 13.3671C2.15064 13.3671 2.15169 13.3662 2.15226 13.3658Z" fill="#33FF33"/>
<path d="M8.69948 20.2157C8.68053 20.1379 8.69965 20.0426 8.69964 19.9671C8.36949 16.6686 8.78544 13.4278 8.7853 10.1494C8.37448 10.1494 8.78391 10.0329 8.7809 9.95806C9.1325 9.94141 9.48634 9.94141 9.86046 9.94141C9.86046 10.3095 10.3259 10.1307 10.3259 10.5214C10.6925 10.5214 10.574 11.0694 10.9391 11.0694C10.9391 11.4724 10.9391 11.8539 10.9391 12.251C11.6962 12.251 12.4348 12.251 13.1958 12.251C13.1958 12.6232 13.1958 12.9804 13.1958 13.3606C13.9437 13.3606 14.6694 13.3606 15.4105 13.3606C15.4105 13.7308 15.4105 14.0781 15.4105 14.4548C15.8021 14.4548 16.1786 14.4548 16.5708 14.4578C16.5865 14.8327 16.7492 15.2697 16.7492 15.6585C16.3597 15.6585 16.415 16.3214 16.0173 16.3214C16.0173 16.6906 15.4169 16.3153 15.4169 16.6862C14.6754 16.6862 14.2421 17.5643 13.4968 17.5643C13.4968 17.9688 13.1714 17.6614 13.1714 18.0614C12.4132 18.0614 11.7064 18.2002 10.9513 18.2002C10.9513 18.5661 11.4641 18.6815 11.4641 19.0557C11.0967 19.0557 11.4231 19.1385 11.0576 19.1385C11.0576 19.5596 9.86601 20.2157 9.86601 20.2157C9.51081 20.2157 9.0572 20.218 8.69948 20.2157Z" fill="#33FF33"/>
<path d="M8.78225 28.172C8.41252 28.172 7.87233 28.172 7.48131 28.172C7.48131 27.7853 7.15608 27.4911 7.15608 27.0948C6.84605 27.0948 7.05233 27.0105 6.76354 27.021C6.62104 27.0262 6.01167 26.9935 6.01776 26.8463C6.02863 26.5834 6.00966 26.3636 6.01776 26.1005C6.02164 25.9747 5.89125 26.0149 5.77383 26.0177C5.48276 26.0246 5.84568 25.8858 5.55453 25.891C5.45036 25.8929 5.1211 25.9591 5.12337 25.852C5.12894 25.5888 4.86682 25.2032 4.87944 24.9405C4.88779 24.7668 5.3811 24.719 5.20228 24.7281C4.91878 24.7425 4.63408 24.7319 4.32531 24.7319C4.32531 24.4176 3.81206 24.1593 3.82243 23.8634C3.82757 23.717 4.28955 23.6314 4.14624 23.6383C3.91264 23.6497 3.67752 23.6309 3.44421 23.645C3.28614 23.6546 2.84501 23.7873 2.84673 23.6383C2.85419 22.9948 2.30719 22.5184 2.31383 21.8748C2.31529 21.7336 3.23268 21.3173 3.08448 21.3243C2.82806 21.3364 2.57042 21.3204 2.31383 21.3304C2.17594 21.3358 1.70145 22.1926 1.70841 22.0405C1.72019 21.7837 1.29607 21.1379 1.30187 20.8805C1.3043 20.7728 0.917766 20.879 0.814027 20.8805C0.478667 20.8854 0.672999 20.3746 0.326172 20.3746C0.326172 19.586 0.651405 18.2645 0.651405 17.4834C1.40835 17.4834 2.66808 17.5663 3.44421 17.5663C3.44421 17.8436 3.25992 18.4478 3.25992 18.7205C3.25992 18.7849 3.26614 18.85 3.25861 18.9134C3.24301 19.0449 4.14181 17.7843 3.90374 18.7205C4.48614 18.7141 4.5409 18.7205 5.12337 18.7205C5.18553 18.7205 5.69542 18.4777 5.77383 18.4777C5.85414 18.8014 6.28392 18.493 6.26169 18.8091C6.25084 18.9632 5.63046 19.6405 5.77384 19.6377C6.13751 19.2533 6.4584 19.9745 6.74954 19.9691C6.85254 19.9672 6.58812 20.266 6.58571 20.3746C6.57985 20.6378 6.59066 20.9015 6.58098 21.1644C6.57599 21.3001 6.70668 20.8814 6.83084 20.8805C7.49891 20.8758 8.0999 21.1104 8.78225 21.1291C8.79549 21.8897 8.77839 22.8511 8.77866 23.5937C8.7792 25.1198 8.78098 26.6459 8.78225 28.172Z" fill="#33FF33"/>
<path d="M8.79941 28.1708C8.61721 27.012 8.78033 25.1179 8.77979 23.5921C8.77952 22.8496 8.61423 21.307 8.61723 20.549C9.32637 20.5334 9.75622 21.129 10.4873 21.129C10.4873 20.814 10.5809 20.7561 10.5686 20.4661C10.5617 20.3021 10.735 19.8792 10.8939 19.8861C11.17 19.8981 11.4306 19.7117 11.707 19.7204C11.839 19.7245 11.547 19.7646 11.5443 19.6375C11.5378 19.3175 11.7882 19.1456 11.7882 18.809C12.5097 18.809 12.9316 18.229 13.6583 18.229C13.6583 17.8259 13.9835 17.8819 13.9835 17.4832C14.7665 17.4832 15.8167 17.4004 16.5854 17.4004C16.5854 18.1759 16.5854 19.4418 16.5854 20.2297C16.203 20.2297 15.8254 20.2297 15.424 20.2297C15.424 20.6007 15.424 20.9535 15.424 21.3275C15.035 21.3275 14.6697 21.3275 14.288 21.3275C14.288 22.1014 14.288 22.8539 14.288 23.6305C13.9243 23.6305 13.5766 23.6305 13.2117 23.6305C13.2117 24.0027 13.2117 24.3512 13.2117 24.7225C12.8415 24.7225 12.4878 24.7225 12.1129 24.7225C12.1129 25.1161 12.1129 25.4875 12.1129 25.8784C11.7141 25.8784 11.3363 25.8784 10.9363 25.8784C10.9363 26.263 10.9363 26.6282 10.9363 27.012C10.5715 27.012 10.2284 27.012 9.86447 27.012C9.86447 27.4011 9.86447 27.772 9.86447 28.1718C9.50115 28.1718 9.15828 28.1718 8.79941 28.1708Z" fill="#33FF33"/>
<path d="M16.2189 16.6959C16.2181 16.7216 16.2172 16.7474 16.2078 16.7898C16.1964 16.8439 16.1935 16.8812 16.1906 16.9186C16.2691 16.905 16.3475 16.8914 16.426 16.8778C16.4406 16.8763 16.4553 16.8748 16.4824 16.8878C16.5594 16.9338 16.6222 16.9703 16.6892 16.9949C16.7297 17.0097 16.7784 16.9999 16.8204 17.0118C17.1469 17.1045 17.3138 17.3431 17.3478 17.6697C17.3794 17.9735 17.3906 18.281 17.3875 18.5866C17.3818 19.1646 17.4387 19.7456 17.3483 20.3199C17.2903 20.688 17.1696 20.938 16.664 20.9818C16.6209 20.9856 16.5797 21.0098 16.5368 21.0211C16.4753 21.0373 16.4089 21.0717 16.3517 21.0605C16.208 21.0322 16.1993 21.0993 16.1837 21.2213C16.1587 21.4165 16.1315 21.6259 16.0428 21.7952C15.8753 22.1148 15.5199 22.0693 15.2342 22.1397C15.1284 22.1657 15.0777 22.1799 15.0841 22.29C15.0934 22.4526 15.1211 22.6163 15.1107 22.7776C15.0861 23.1595 15.0546 23.5418 15.0042 23.9209C14.973 24.1553 14.6819 24.376 14.4462 24.3876C14.3213 24.3938 14.1959 24.4061 14.0728 24.428C14.0393 24.4339 13.994 24.4809 13.9875 24.5155C13.966 24.6311 13.9583 24.7496 13.9476 24.8671C13.9189 25.1847 13.74 25.3955 13.436 25.466C13.2675 25.5051 13.0984 25.542 12.9388 25.5778C12.9052 25.774 12.8836 25.9489 12.8442 26.1195C12.7679 26.4503 12.5203 26.6569 12.179 26.6422C11.8161 26.6265 11.7376 26.6799 11.7102 27.0511C11.7098 27.0569 11.7108 27.0629 11.7098 27.0686C11.6476 27.4238 11.6192 27.6708 11.1423 27.7644C11.0238 27.7877 10.9052 27.8122 10.7856 27.8275C10.6766 27.8415 10.6499 27.906 10.6408 28.0069C10.6258 28.1743 10.6313 28.3579 10.5623 28.5018C10.4926 28.6472 10.3634 28.8124 10.2237 28.8625C9.97485 28.9516 9.71433 29.0152 9.43087 28.9968C8.91695 28.9635 8.39931 28.9797 7.88357 28.9912C7.67662 28.9958 7.48391 28.9487 7.29145 28.8914C7.20152 28.8647 7.10815 28.8237 7.03657 28.7639C6.81744 28.581 6.78616 28.3227 6.77985 28.0533C6.77818 27.9819 6.74552 27.8675 6.69867 27.8494C6.57275 27.8008 6.43224 27.7821 6.29611 27.7727C6.108 27.7597 5.86248 27.6208 5.82291 27.4716C5.7616 27.2405 5.71092 27.0065 5.66247 26.7658C5.63934 26.7297 5.60947 26.7014 5.56443 26.672C5.30802 26.6325 5.06678 26.5941 4.82349 26.5448C4.78735 26.4966 4.75327 26.4593 4.71373 26.4134C4.6898 26.3969 4.67133 26.3892 4.65256 26.3676C4.60519 26.1158 4.56083 25.8772 4.50811 25.6406C4.50014 25.6048 4.45762 25.5585 4.42353 25.5505C4.2373 25.5067 4.04871 25.4735 3.85083 25.4317C3.80177 25.4066 3.76281 25.3865 3.71763 25.3576C3.67121 25.3195 3.63101 25.2901 3.58771 25.2479C3.53782 25.0341 3.48507 24.8344 3.44656 24.6318C3.42475 24.517 3.41941 24.4352 3.26042 24.4215C3.01497 24.4004 2.75274 24.3962 2.55237 24.1934C2.53964 24.1688 2.52805 24.1539 2.51418 24.1266C2.47849 24.0299 2.42257 23.9475 2.41538 23.8609C2.3747 23.3712 2.34518 22.8806 2.31332 22.3901C2.30894 22.3227 2.31271 22.2548 2.31271 22.178C2.23918 22.1745 2.18887 22.1721 2.1326 22.1618C2.10856 22.1474 2.09049 22.1408 2.06597 22.1233C1.91417 22.0955 1.76881 22.0786 1.61862 22.0516C1.582 22.0151 1.55024 21.9888 1.51306 21.9538C1.48933 21.9381 1.471 21.9311 1.45173 21.9156C1.45079 21.9072 1.4469 21.8908 1.44033 21.881C1.39893 21.8188 1.34593 21.7706 1.33273 21.713C1.29355 21.5419 1.27235 21.3667 1.23889 21.1942C1.22985 21.1475 1.21006 21.0726 1.18185 21.0654C1.04658 21.0311 0.906286 20.995 0.768617 20.9981C0.536274 21.0034 0.219266 20.8265 0.165939 20.5969C0.094865 20.291 0.020292 19.9776 0.0138632 19.666C0.000109956 18.9994 -0.0226737 18.3316 0.0982834 17.6668C0.177584 17.2309 0.333064 17.052 0.771501 17.0046C0.936113 16.9868 1.097 16.9332 1.25824 16.8962C1.25209 16.804 1.23906 16.7232 1.24314 16.6434C1.24959 16.5171 1.19163 16.4837 1.0773 16.4825C0.941064 16.481 0.802478 16.472 0.669461 16.4438C0.401915 16.3872 0.183066 16.2551 0.1271 15.9566C0.0765519 15.687 0.0235324 15.4146 0.0111979 15.1416C-0.00806382 14.7152 0.00208448 14.2873 0.00815241 13.8601C0.0104988 13.6949 0.0261131 13.5285 0.0525716 13.3655C0.102223 13.0596 0.151955 12.7385 0.486497 12.6138C0.653989 12.5513 0.84053 12.5334 1.02036 12.517C1.14864 12.5052 1.20609 12.4608 1.20847 12.3263C1.21584 11.9091 1.21348 11.4907 1.24547 11.0753C1.28764 10.5276 1.39649 10.4058 1.80751 10.2642C1.92032 10.2253 2.04308 10.2016 2.16181 10.1992C2.32144 10.196 2.34908 10.1161 2.34491 9.97602C2.33083 9.50284 2.31618 9.03074 2.40775 8.56006C2.47105 8.23471 2.75249 7.9869 3.08669 8.00873C3.28777 8.02187 3.40543 7.90717 3.41108 7.70567C3.42392 7.24712 3.41667 6.78591 3.46556 6.33115C3.50377 5.97585 3.75446 5.71578 4.10066 5.71335C4.43835 5.71098 4.51176 5.65453 4.51164 5.31842C4.51157 5.09601 4.50236 4.87308 4.51423 4.65134C4.52582 4.43473 4.53158 4.2109 4.59202 4.00626C4.63431 3.86306 4.73815 3.69586 4.86109 3.63034C5.04946 3.52995 5.27541 3.48896 5.49027 3.45906C5.64099 3.43808 5.68688 3.37952 5.68377 3.23658C5.67817 2.97918 5.67721 2.72144 5.68363 2.46407C5.68907 2.24567 5.69201 2.02512 5.72484 1.8101C5.7571 1.59876 5.84223 1.39188 6.05241 1.30663C6.23716 1.23169 6.43889 1.16151 6.63334 1.16092C6.83606 1.1603 6.7663 1.0497 6.77738 0.949471C6.80298 0.717961 6.80331 0.485423 6.97276 0.287437C7.19625 0.0263101 7.50442 0.0386896 7.78293 0.0208373C8.31441 -0.0132292 8.85051 0.031126 9.38259 0.00244058C9.65066 -0.0120112 9.89468 0.0392354 10.141 0.116006C10.2303 0.143846 10.325 0.180294 10.3954 0.239693C10.6118 0.422157 10.6325 0.686679 10.6425 0.946849C10.6473 1.07182 10.6313 1.17545 10.8117 1.17696C10.9432 1.17806 11.0729 1.24634 11.2059 1.26155C11.484 1.29333 11.6209 1.46971 11.671 1.72452C11.7101 1.92317 11.7344 2.12703 11.7416 2.32946C11.753 2.65095 11.7395 2.97333 11.7497 3.2949C11.7514 3.34839 11.8115 3.43252 11.8596 3.44591C12.016 3.48939 12.1804 3.50138 12.3396 3.536C12.4219 3.55391 12.5065 3.5822 12.5782 3.62605C12.9147 3.83183 12.8903 4.20387 12.9275 4.5233C12.9663 4.85611 12.9209 5.1989 12.9179 5.53739C12.9175 5.57644 12.9449 5.64174 12.9729 5.65055C13.0915 5.68792 13.2142 5.7249 13.3371 5.73206C13.6279 5.74902 13.8318 5.87521 13.9035 6.16653C13.9734 6.45019 14.0138 6.74428 14.0362 7.03626C14.054 7.26722 14.0218 7.50187 14.0178 7.73498C14.0149 7.89909 14.1566 8.03132 14.3136 8.00426C14.507 7.97095 14.6563 8.05885 14.7971 8.16845C15.1052 8.4084 15.0454 8.78318 15.0904 9.1055C15.1326 9.40806 15.0872 9.72301 15.0862 10.0325C15.086 10.0782 15.1076 10.1534 15.1372 10.1644C15.253 10.2075 15.3761 10.2558 15.4964 10.2554C15.7593 10.2547 16.0244 10.4176 16.1035 10.6729C16.1402 10.7913 16.1603 10.916 16.1785 11.0393C16.2037 11.21 16.2339 11.3818 16.237 11.5536C16.2421 11.8275 16.2212 12.102 16.2252 12.376C16.2259 12.4221 16.2903 12.4952 16.3371 12.507C16.452 12.5359 16.5737 12.5376 16.6928 12.5479C17.0209 12.5764 17.2681 12.7686 17.3142 13.0948C17.3555 13.3879 17.3887 13.6858 17.3856 13.9812C17.379 14.6089 17.4439 15.2395 17.3228 15.8639C17.2845 16.0613 17.2122 16.2191 17.0363 16.3352C16.8242 16.4752 16.589 16.459 16.3596 16.4823C16.1831 16.5002 16.1643 16.5154 16.2189 16.6959ZM8.72056 21.2633C8.0496 21.2626 7.37862 21.259 6.70769 21.2637C6.583 21.2646 6.53429 21.2335 6.53931 21.0978C6.54903 20.8349 6.53818 20.5713 6.54406 20.3082C6.54648 20.1996 6.50761 20.1662 6.40417 20.1681C6.11178 20.1734 5.81917 20.1662 5.52679 20.1718C5.38281 20.1746 5.34618 20.1279 5.35707 19.9738C5.35707 19.6371 5.34779 19.3488 5.35707 19.0174C5.27832 19.0174 5.18384 19.0135 5.1214 19.0135C4.53645 19.0135 3.95145 19.0099 3.36656 19.0162C3.23774 19.0176 3.18707 18.9786 3.20274 18.8472C3.2103 18.7838 3.20405 18.7187 3.20405 18.6543C3.20405 18.3816 3.20405 18.1089 3.20405 17.8316C2.42459 17.8316 1.67118 17.8316 0.911004 17.8316C0.911004 18.6126 0.911004 19.3811 0.911004 20.1696C1.25931 20.1696 1.59622 20.1727 1.93301 20.1678C2.0372 20.1663 2.07458 20.2013 2.07214 20.3091C2.06632 20.5663 2.07895 20.8243 2.06713 21.0811C2.06013 21.2332 2.11543 21.2692 2.25391 21.2638C2.5116 21.2538 2.77034 21.2698 3.02786 21.2577C3.1767 21.2507 3.20857 21.3064 3.20711 21.4476C3.20044 22.0911 3.20849 22.7347 3.201 23.3782C3.19927 23.5271 3.23038 23.5877 3.38912 23.5781C3.62344 23.564 3.85956 23.5828 4.09416 23.5714C4.23808 23.5644 4.28225 23.6119 4.2771 23.7582C4.26668 24.054 4.27399 24.3505 4.27399 24.6648C4.58408 24.6648 4.87 24.6754 5.15472 24.661C5.3343 24.6519 5.38304 24.7187 5.37466 24.8924C5.36198 25.1551 5.37501 25.4189 5.36941 25.682C5.36713 25.7891 5.40386 25.8256 5.50847 25.8238C5.80086 25.8185 6.09351 25.8267 6.38583 25.8198C6.50375 25.817 6.54853 25.8517 6.54463 25.9776C6.5365 26.2406 6.55005 26.5044 6.53913 26.7672C6.53301 26.9144 6.57954 26.9588 6.72265 26.9536C7.01267 26.943 7.30332 26.9504 7.61467 26.9504C7.61467 27.3467 7.61467 27.7177 7.61467 28.1043C8.00737 28.1043 8.37868 28.1043 8.78185 28.1065C9.12314 28.1065 9.46443 28.1065 9.82609 28.1065C9.82609 27.7067 9.82609 27.3358 9.82609 26.9467C10.1884 26.9467 10.5299 26.9467 10.893 26.9467C10.893 26.5629 10.893 26.1977 10.893 25.8131C11.2911 25.8131 11.6672 25.8131 12.0642 25.8131C12.0642 25.4222 12.0642 25.0507 12.0642 24.6571C12.4374 24.6571 12.7894 24.6571 13.158 24.6571C13.158 24.2859 13.158 23.9374 13.158 23.5652C13.5212 23.5652 13.8673 23.5652 14.2293 23.5652C14.2293 22.7885 14.2293 22.0361 14.2293 21.2621C14.6093 21.2621 14.9729 21.2621 15.3601 21.2621C15.3601 20.8882 15.3601 20.5354 15.3601 20.1644C15.7597 20.1644 16.1355 20.1644 16.5162 20.1644C16.5162 19.3764 16.5162 18.6077 16.5162 17.8322C15.751 17.8322 14.9973 17.8322 14.218 17.8322C14.218 18.2309 14.218 18.6184 14.218 19.0215C13.4946 19.0215 12.7969 19.0215 12.0787 19.0215C12.0787 19.3581 12.0743 19.6784 12.0809 19.9984C12.0835 20.1255 12.0469 20.1759 11.9154 20.1717C11.6403 20.163 11.3644 20.1777 11.0896 20.1657C10.9314 20.1588 10.8784 20.2085 10.8853 20.3725C10.8975 20.6624 10.8887 20.9533 10.8887 21.2683C10.1609 21.2683 9.45704 21.2683 8.72056 21.2633ZM2.04482 13.3635C1.66919 13.3635 1.29355 13.3635 0.901613 13.3635C0.901613 13.752 0.901613 14.1184 0.899697 14.5172C0.899697 14.883 0.899697 15.2487 0.899697 15.6315C1.30031 15.6315 1.67627 15.6315 2.0732 15.6315C2.0732 16.0018 2.0732 16.3551 2.0732 16.7311C2.81865 16.7311 3.54299 16.7311 4.28367 16.7311C4.28367 17.1377 4.28367 17.5212 4.28367 17.9276C5.04152 17.9276 5.78282 17.9276 6.53928 17.9276C6.53928 18.2996 6.53928 18.6482 6.53928 19.0174C6.90092 19.0174 7.24754 19.0174 7.61579 19.0174C7.61579 19.4432 7.61579 19.8486 7.61579 20.2594C8.0099 20.2594 8.38173 20.2594 8.78479 20.264C9.12596 20.264 9.46714 20.264 9.8214 20.264C9.8214 19.8367 9.8214 19.4355 9.8214 19.0127C10.186 19.0127 10.5374 19.0127 10.9039 19.0127C10.9039 18.6369 10.9039 18.2831 10.9039 17.9157C11.657 17.9157 12.3943 17.9157 13.1505 17.9157C13.1505 17.514 13.1505 17.1258 13.1505 16.7196C13.8939 16.7196 14.6183 16.7196 15.358 16.7196C15.358 16.3472 15.358 15.993 15.358 15.6223C15.7546 15.6223 16.1361 15.6223 16.5245 15.6223C16.5245 15.2318 16.5245 14.8583 16.5284 14.4518C16.5284 14.0967 16.5284 13.7417 16.5284 13.3609C16.1275 13.3609 15.7477 13.3609 15.3515 13.3609C15.3515 12.5889 15.3515 11.8428 15.3515 11.0755C14.971 11.0755 14.6074 11.0755 14.2185 11.0755C14.2185 10.3164 14.2185 9.57846 14.2185 8.82277C13.8513 8.82277 13.5098 8.82277 13.1459 8.82277C13.1459 8.05397 13.1459 7.30321 13.1459 6.53465C12.7814 6.53465 12.4396 6.53465 12.0908 6.53465C12.0859 6.47153 12.0794 6.42604 12.0793 6.38054C12.0786 5.75462 12.0762 5.12867 12.081 4.50278C12.082 4.37412 12.0434 4.32731 11.9137 4.33124C11.6329 4.33977 11.3515 4.32667 11.0709 4.33699C10.926 4.34231 10.8847 4.29144 10.8862 4.14706C10.8926 3.51535 10.8891 2.88354 10.8885 2.25176C10.8884 2.18931 10.8835 2.12686 10.88 2.04487C10.5922 2.04487 10.3185 2.045 10.0448 2.04483C9.81616 2.04469 9.816 2.04453 9.81588 1.81851C9.81572 1.51604 9.81584 1.21356 9.81584 0.897249C9.42507 0.897249 9.05419 0.897249 8.65053 0.892902C8.30893 0.892902 7.96732 0.892902 7.61165 0.892902C7.61165 1.2289 7.60516 1.53832 7.61444 1.84726C7.61896 1.99772 7.5763 2.05838 7.42108 2.05091C7.18642 2.03962 6.95058 2.05483 6.71577 2.04533C6.58307 2.03997 6.53705 2.07767 6.53897 2.22069C6.54677 2.79991 6.54221 3.3793 6.54221 3.95863C6.54221 4.33327 6.54221 4.33327 6.17097 4.33327C5.9095 4.33327 5.64802 4.33327 5.37126 4.33327C5.37126 4.42502 5.37126 4.48833 5.37126 4.55164C5.3713 5.13682 5.37144 5.722 5.37132 6.30718C5.37127 6.54252 5.37102 6.54278 5.14674 6.54299C4.86206 6.54326 4.57737 6.54305 4.27398 6.54305C4.27398 6.63122 4.27398 6.69407 4.27398 6.75691C4.27399 7.33624 4.274 7.91557 4.274 8.4949C4.27401 8.82835 4.274 8.82835 3.9485 8.82835C3.7045 8.82835 3.4605 8.82835 3.19632 8.82835C3.19632 9.59356 3.19632 10.3276 3.19632 11.0763C3.11301 11.0763 3.05083 11.0763 2.98865 11.0763C2.72478 11.0764 2.4609 11.0781 2.19706 11.0754C2.11551 11.0746 2.06853 11.0926 2.06929 11.1907C2.0749 11.9161 2.07713 12.6415 2.07927 13.3676C2.07927 13.3676 2.07822 13.3685 2.04482 13.3635Z" fill="black"/>
</svg>
